<svg xmlns="http://www.w3.org/2000/svg" width="104" height="63" viewBox="0 0 104 63"><g fill="#FFF" fill-rule="evenodd"><path d="M9.54 61.117l6.252-6.276-2.1-2.11-3.917 3.933-7.12-7.146L.32 51.862zm2.577-17.319l1.573 1.578 3.244-3.257 1.879 1.888-3.245 3.256 2.007 2.013 4.01-4.025 1.88 1.884-6.35 6.377-9.22-9.253 6.35-6.378 1.882 1.889zm20.527-5.875l-6.272-1.786.006-.002c.724-1.379.4-3.247-.87-4.523-1.369-1.369-3.698-1.32-5.25.24l-.002-.002-4.672 4.69 9.221 9.254 2.337-2.35-7.462-7.49 1.508-1.512c.671-.676 1.738-.698 2.387-.045.65.651.633 1.725-.039 2.4l-1.374 1.38 7.971 2.263 2.511-2.517zM28.42 23.246c2.883-2.895 6.694-2.614 9.395.098 2.7 2.712 2.983 6.535.1 9.43-2.884 2.893-6.694 2.612-9.394-.099-2.703-2.713-2.982-6.536-.1-9.429m1.831 1.837c-1.462 1.468-.974 3.253.81 5.041 1.78 1.79 3.556 2.278 5.02.812 1.462-1.468.975-3.252-.808-5.04-1.782-1.79-3.56-2.28-5.022-.813m10.34-6.699l-1.712-5.226 2.726-2.736 2.289 8.957 3.61 3.627-2.338 2.347-3.592-3.607-8.551-2.711 2.573-2.582 4.947 1.925zm42.66 31.894l9.221-9.255-2.457-2.466-9.22 9.255zm-35.279-35.41l7.17-3.434-5.295 5.315 2.13 2.137 9.218-9.253-2.925-2.94-6.942 3.399 3.473-6.88L51.785.189 42.568 9.44l2.13 2.137 5.295-5.314-3.422 7.195zm15.984 1.307l-1.574 1.58 3.537 3.55-1.882 1.887-3.534-3.55-2.006 2.014 4.303 4.317-1.88 1.89-6.642-6.669 9.217-9.254 6.645 6.668-1.882 1.884zm8.899 23.677l6.252 6.277 2.099-2.107-3.916-3.932 7.119-7.147-2.337-2.344zm24.834 6.404l-2.954 9.81-.005.005 6.366-6.391 2.19 2.197-9.218 9.248-2.89-2.899 2.522-10.105.007-.005-6.302 6.32-2.127-2.134 9.215-9.251zm-26.58-8.155l1.776-6.297.006.006c1.37.726 3.233.4 4.504-.874 1.365-1.37 1.314-3.71-.237-5.27v-.002l-4.962-4.98-9.22 9.255 2.34 2.35 7.462-7.494 1.8 1.805c.669.674.692 1.745.042 2.398-.65.652-1.718.633-2.388-.04l-1.666-1.675-1.967 8.295 2.51 2.523zM11.29 62.885h81.045L51.81 22.213z"/><path d="M9.502 61.21l6.272-6.296-2.106-2.115-3.93 3.944-7.14-7.167-2.342 2.351zm2.585-17.37l1.577 1.583 3.253-3.267 1.886 1.894-3.255 3.265 2.013 2.019 4.023-4.036 1.884 1.89-6.368 6.394-9.247-9.28 6.37-6.396 1.886 1.894zm20.587-5.892l-6.29-1.79.005-.003c.727-1.383.401-3.257-.873-4.536-1.37-1.374-3.707-1.325-5.264.24l-.002-.003-4.685 4.704 9.246 9.283 2.345-2.358-7.483-7.513 1.511-1.516c.673-.677 1.743-.699 2.395-.044.652.653.634 1.73-.04 2.407l-1.378 1.383 7.993 2.271 2.52-2.525zm-4.236-14.72c2.891-2.903 6.714-2.622 9.423.098 2.707 2.72 2.991 6.554.1 9.457-2.892 2.902-6.714 2.621-9.422-.098-2.71-2.72-2.991-6.556-.101-9.457m1.837 1.842c-1.465 1.473-.977 3.262.812 5.056 1.786 1.794 3.567 2.286 5.036.814 1.466-1.472.976-3.26-.811-5.056-1.787-1.793-3.57-2.286-5.037-.814m10.37-6.718l-1.719-5.24 2.735-2.745 2.298 8.982 3.62 3.638-2.346 2.354-3.603-3.616-8.576-2.72 2.582-2.59 4.961 1.931zM83.43 50.339l9.247-9.282-2.463-2.474-9.248 9.282zM48.047 14.826l7.192-3.444-5.31 5.33 2.135 2.144 9.244-9.28-2.933-2.947-6.963 3.407 3.485-6.898L51.871.103l-9.244 9.28 2.136 2.143 5.31-5.328-3.432 7.215zm16.032 1.311L62.5 17.72l3.547 3.56-1.888 1.893-3.543-3.561-2.014 2.02 4.316 4.33-1.884 1.895-6.662-6.687 9.244-9.282 6.663 6.689-1.886 1.889zm8.924 23.745l6.27 6.295 2.105-2.113-3.928-3.943 7.141-7.169-2.345-2.35zm24.963 6.416l-2.962 9.838-.006.006 6.384-6.411 2.197 2.204-9.243 9.275-2.898-2.908 2.527-10.134.007-.005-6.318 6.34-2.134-2.142 9.241-9.278zm-26.714-8.171l1.782-6.314.005.005c1.374.728 3.241.4 4.517-.878 1.37-1.374 1.318-3.72-.238-5.284v-.001l-4.976-4.997-9.247 9.282 2.347 2.357 7.484-7.514 1.804 1.809c.672.677.695 1.75.044 2.405-.652.654-1.723.635-2.396-.041l-1.671-1.678-1.972 8.319 2.517 2.53zM11.257 62.983h81.281l-40.64-40.79z"/></g></svg>